<mxfile modified="2021-11-09T15:06:31.135Z" host="app.diagrams.net" agent="5.0 (Macintosh; Intel Mac OS X 10_15_7) AppleWebKit/537.36 (KHTML, like Gecko) Chrome/95.0.4638.69 Safari/537.36" etag="pOkSIyKacGhPmksPPY_q" version="15.7.1" type="github">
  <diagram id="Ht1M8jgEwFfnCIfOTk4-" name="Page-1">
    <mxGraphModel dx="1113" dy="1474" grid="1" gridSize="10" guides="1" tooltips="1" connect="1" arrows="1" fold="1" page="1" pageScale="1" pageWidth="1169" pageHeight="827" math="0" shadow="0">
      <root>
        <mxCell id="0" />
        <mxCell id="1" parent="0" />
        <mxCell id="nadK3N8KtskS3tCUBgkc-50" style="edgeStyle=orthogonalEdgeStyle;rounded=0;orthogonalLoop=1;jettySize=auto;html=1;entryX=1;entryY=0.5;entryDx=0;entryDy=0;fontSize=14;" edge="1" parent="1">
          <mxGeometry relative="1" as="geometry">
            <mxPoint x="355" y="-426" as="sourcePoint" />
            <mxPoint x="245" y="-426" as="targetPoint" />
          </mxGeometry>
        </mxCell>
        <mxCell id="UEzPUAAOIrF-is8g5C7q-154" value="AWS EC2" style="points=[[0,0],[0.25,0],[0.5,0],[0.75,0],[1,0],[1,0.25],[1,0.5],[1,0.75],[1,1],[0.75,1],[0.5,1],[0.25,1],[0,1],[0,0.75],[0,0.5],[0,0.25]];outlineConnect=0;gradientColor=none;html=1;whiteSpace=wrap;fontSize=12;fontStyle=0;shape=mxgraph.aws4.group;grIcon=mxgraph.aws4.group_aws_cloud_alt;strokeColor=#232F3E;fillColor=none;verticalAlign=top;align=left;spacingLeft=30;fontColor=#232F3E;dashed=0;labelBackgroundColor=#ffffff;" parent="1" vertex="1">
          <mxGeometry x="370" y="-640" width="740" height="430" as="geometry" />
        </mxCell>
        <mxCell id="nadK3N8KtskS3tCUBgkc-2" value="" style="shape=image;html=1;verticalAlign=top;verticalLabelPosition=bottom;labelBackgroundColor=#ffffff;imageAspect=0;aspect=fixed;image=https://cdn4.iconfinder.com/data/icons/logos-brands-5/24/flutter-128.png" vertex="1" parent="1">
          <mxGeometry x="150" y="-640" width="62" height="62" as="geometry" />
        </mxCell>
        <mxCell id="nadK3N8KtskS3tCUBgkc-6" value="" style="strokeColor=#dddddd;shadow=1;strokeWidth=1;rounded=1;absoluteArcSize=1;arcSize=2;fillColor=none;" vertex="1" parent="1">
          <mxGeometry x="130" y="-462" width="110" height="72" as="geometry" />
        </mxCell>
        <mxCell id="nadK3N8KtskS3tCUBgkc-7" value="Firebase" style="sketch=0;dashed=0;connectable=0;html=1;fillColor=#5184F3;strokeColor=none;shape=mxgraph.gcp2.firebase;part=1;labelPosition=right;verticalLabelPosition=middle;align=left;verticalAlign=middle;spacingLeft=5;fontColor=#999999;fontSize=12;" vertex="1" parent="nadK3N8KtskS3tCUBgkc-6">
          <mxGeometry width="32.4" height="45" relative="1" as="geometry">
            <mxPoint x="5" y="7" as="offset" />
          </mxGeometry>
        </mxCell>
        <mxCell id="nadK3N8KtskS3tCUBgkc-9" value="" style="endArrow=classic;html=1;rounded=0;entryX=0.627;entryY=-0.034;entryDx=0;entryDy=0;entryPerimeter=0;" edge="1" parent="1" target="nadK3N8KtskS3tCUBgkc-6">
          <mxGeometry width="50" height="50" relative="1" as="geometry">
            <mxPoint x="200" y="-540" as="sourcePoint" />
            <mxPoint x="250" y="-590" as="targetPoint" />
          </mxGeometry>
        </mxCell>
        <mxCell id="nadK3N8KtskS3tCUBgkc-11" value="" style="endArrow=classic;html=1;rounded=0;" edge="1" parent="1">
          <mxGeometry width="50" height="50" relative="1" as="geometry">
            <mxPoint x="162" y="-470" as="sourcePoint" />
            <mxPoint x="162" y="-540" as="targetPoint" />
          </mxGeometry>
        </mxCell>
        <mxCell id="nadK3N8KtskS3tCUBgkc-13" value="&lt;font style=&quot;font-size: 14px&quot;&gt;Flutter Web client&lt;/font&gt;" style="text;html=1;strokeColor=none;fillColor=none;align=center;verticalAlign=middle;whiteSpace=wrap;rounded=0;" vertex="1" parent="1">
          <mxGeometry x="100" y="-570" width="170" height="30" as="geometry" />
        </mxCell>
        <mxCell id="nadK3N8KtskS3tCUBgkc-17" value="" style="sketch=0;aspect=fixed;html=1;points=[];align=center;image;fontSize=12;image=img/lib/mscae/Docker.svg;dashed=1;fillColor=none;" vertex="1" parent="1">
          <mxGeometry x="532.5" y="-660" width="50" height="41" as="geometry" />
        </mxCell>
        <mxCell id="nadK3N8KtskS3tCUBgkc-18" value="" style="rounded=0;whiteSpace=wrap;html=1;fontSize=14;fillColor=#dae8fc;strokeColor=#6c8ebf;" vertex="1" parent="1">
          <mxGeometry x="457.5" y="-507" width="125" height="60" as="geometry" />
        </mxCell>
        <mxCell id="nadK3N8KtskS3tCUBgkc-20" value="Producer&lt;br&gt;current.speed" style="text;html=1;strokeColor=none;fillColor=none;align=center;verticalAlign=middle;whiteSpace=wrap;rounded=0;fontSize=14;" vertex="1" parent="1">
          <mxGeometry x="490" y="-492" width="60" height="30" as="geometry" />
        </mxCell>
        <mxCell id="nadK3N8KtskS3tCUBgkc-23" value="" style="rounded=0;whiteSpace=wrap;html=1;fontSize=14;fillColor=#fff2cc;strokeColor=#d6b656;" vertex="1" parent="1">
          <mxGeometry x="665" y="-520" width="125" height="80" as="geometry" />
        </mxCell>
        <mxCell id="nadK3N8KtskS3tCUBgkc-25" value="Topic current.speed" style="rounded=0;whiteSpace=wrap;html=1;fontSize=14;fillColor=#ffe6cc;strokeColor=#d79b00;" vertex="1" parent="1">
          <mxGeometry x="676.25" y="-510" width="103.75" height="30" as="geometry" />
        </mxCell>
        <mxCell id="nadK3N8KtskS3tCUBgkc-26" value="Partition 1" style="rounded=0;whiteSpace=wrap;html=1;fontSize=14;fillColor=#ffe6cc;strokeColor=#d79b00;" vertex="1" parent="1">
          <mxGeometry x="676.25" y="-470" width="103.75" height="20" as="geometry" />
        </mxCell>
        <mxCell id="nadK3N8KtskS3tCUBgkc-28" value="" style="endArrow=classic;html=1;rounded=0;fontSize=14;entryX=0;entryY=0.5;entryDx=0;entryDy=0;" edge="1" parent="1">
          <mxGeometry width="50" height="50" relative="1" as="geometry">
            <mxPoint x="584" y="-480" as="sourcePoint" />
            <mxPoint x="665" y="-480" as="targetPoint" />
          </mxGeometry>
        </mxCell>
        <mxCell id="nadK3N8KtskS3tCUBgkc-30" style="edgeStyle=orthogonalEdgeStyle;rounded=0;orthogonalLoop=1;jettySize=auto;html=1;exitX=0;exitY=0.5;exitDx=0;exitDy=0;fontSize=14;" edge="1" parent="1" source="nadK3N8KtskS3tCUBgkc-29" target="nadK3N8KtskS3tCUBgkc-23">
          <mxGeometry relative="1" as="geometry" />
        </mxCell>
        <mxCell id="nadK3N8KtskS3tCUBgkc-42" style="edgeStyle=orthogonalEdgeStyle;rounded=0;orthogonalLoop=1;jettySize=auto;html=1;exitX=1;exitY=0.5;exitDx=0;exitDy=0;entryX=0.5;entryY=0;entryDx=0;entryDy=0;fontSize=14;" edge="1" parent="1" source="nadK3N8KtskS3tCUBgkc-29" target="nadK3N8KtskS3tCUBgkc-32">
          <mxGeometry relative="1" as="geometry" />
        </mxCell>
        <mxCell id="nadK3N8KtskS3tCUBgkc-29" value="Consumer&lt;br&gt;current.speed" style="rounded=0;whiteSpace=wrap;html=1;fontSize=14;fillColor=#d5e8d4;strokeColor=#82b366;" vertex="1" parent="1">
          <mxGeometry x="870" y="-510" width="120" height="60" as="geometry" />
        </mxCell>
        <mxCell id="nadK3N8KtskS3tCUBgkc-43" style="edgeStyle=orthogonalEdgeStyle;rounded=0;orthogonalLoop=1;jettySize=auto;html=1;entryX=1;entryY=0.5;entryDx=0;entryDy=0;fontSize=14;" edge="1" parent="1" source="nadK3N8KtskS3tCUBgkc-32" target="nadK3N8KtskS3tCUBgkc-41">
          <mxGeometry relative="1" as="geometry" />
        </mxCell>
        <mxCell id="nadK3N8KtskS3tCUBgkc-32" value="process&lt;br&gt;speed" style="shape=image;html=1;verticalAlign=top;verticalLabelPosition=bottom;labelBackgroundColor=#ffffff;imageAspect=0;aspect=fixed;image=https://cdn3.iconfinder.com/data/icons/logos-and-brands-adobe/512/267_Python-128.png;fontSize=14;fillColor=none;" vertex="1" parent="1">
          <mxGeometry x="1050" y="-459" width="30" height="30" as="geometry" />
        </mxCell>
        <mxCell id="nadK3N8KtskS3tCUBgkc-34" value="" style="rounded=0;whiteSpace=wrap;html=1;fontSize=14;fillColor=#d5e8d4;strokeColor=#82b366;" vertex="1" parent="1">
          <mxGeometry x="458.5" y="-386" width="125" height="60" as="geometry" />
        </mxCell>
        <mxCell id="nadK3N8KtskS3tCUBgkc-35" value="Consumer&lt;br&gt;speed.check" style="text;html=1;strokeColor=none;fillColor=none;align=center;verticalAlign=middle;whiteSpace=wrap;rounded=0;fontSize=14;" vertex="1" parent="1">
          <mxGeometry x="491" y="-371" width="60" height="30" as="geometry" />
        </mxCell>
        <mxCell id="nadK3N8KtskS3tCUBgkc-36" value="" style="rounded=0;whiteSpace=wrap;html=1;fontSize=14;fillColor=#fff2cc;strokeColor=#d6b656;" vertex="1" parent="1">
          <mxGeometry x="666" y="-399" width="125" height="80" as="geometry" />
        </mxCell>
        <mxCell id="nadK3N8KtskS3tCUBgkc-37" value="Topic&lt;br&gt;speed.check" style="rounded=0;whiteSpace=wrap;html=1;fontSize=14;fillColor=#ffe6cc;strokeColor=#d79b00;" vertex="1" parent="1">
          <mxGeometry x="677.25" y="-389" width="103.75" height="30" as="geometry" />
        </mxCell>
        <mxCell id="nadK3N8KtskS3tCUBgkc-38" value="Partition 1" style="rounded=0;whiteSpace=wrap;html=1;fontSize=14;fillColor=#ffe6cc;strokeColor=#d79b00;" vertex="1" parent="1">
          <mxGeometry x="677.25" y="-349" width="103.75" height="20" as="geometry" />
        </mxCell>
        <mxCell id="nadK3N8KtskS3tCUBgkc-39" value="" style="endArrow=classic;html=1;rounded=0;fontSize=14;entryX=0;entryY=0.5;entryDx=0;entryDy=0;" edge="1" parent="1">
          <mxGeometry width="50" height="50" relative="1" as="geometry">
            <mxPoint x="585" y="-359" as="sourcePoint" />
            <mxPoint x="666" y="-359" as="targetPoint" />
          </mxGeometry>
        </mxCell>
        <mxCell id="nadK3N8KtskS3tCUBgkc-40" style="edgeStyle=orthogonalEdgeStyle;rounded=0;orthogonalLoop=1;jettySize=auto;html=1;exitX=0;exitY=0.5;exitDx=0;exitDy=0;fontSize=14;" edge="1" parent="1" source="nadK3N8KtskS3tCUBgkc-41" target="nadK3N8KtskS3tCUBgkc-36">
          <mxGeometry relative="1" as="geometry" />
        </mxCell>
        <mxCell id="nadK3N8KtskS3tCUBgkc-41" value="Producer&lt;br&gt;speed.check" style="rounded=0;whiteSpace=wrap;html=1;fontSize=14;fillColor=#dae8fc;strokeColor=#6c8ebf;" vertex="1" parent="1">
          <mxGeometry x="871" y="-389" width="120" height="60" as="geometry" />
        </mxCell>
        <mxCell id="nadK3N8KtskS3tCUBgkc-45" value="" style="rounded=0;whiteSpace=wrap;html=1;fontSize=14;fillColor=none;dashed=1;" vertex="1" parent="1">
          <mxGeometry x="410" y="-580" width="690" height="310" as="geometry" />
        </mxCell>
        <mxCell id="nadK3N8KtskS3tCUBgkc-46" value="Kafka cluster" style="sketch=0;points=[[0,0,0],[0.25,0,0],[0.5,0,0],[0.75,0,0],[1,0,0],[0,1,0],[0.25,1,0],[0.5,1,0],[0.75,1,0],[1,1,0],[0,0.25,0],[0,0.5,0],[0,0.75,0],[1,0.25,0],[1,0.5,0],[1,0.75,0]];outlineConnect=0;fontColor=#232F3E;gradientColor=#945DF2;gradientDirection=north;fillColor=#5A30B5;strokeColor=#ffffff;dashed=0;verticalLabelPosition=bottom;verticalAlign=top;align=center;html=1;fontSize=12;fontStyle=0;aspect=fixed;shape=mxgraph.aws4.resourceIcon;resIcon=mxgraph.aws4.managed_streaming_for_kafka;" vertex="1" parent="1">
          <mxGeometry x="715" y="-600" width="40" height="40" as="geometry" />
        </mxCell>
        <mxCell id="nadK3N8KtskS3tCUBgkc-52" value="" style="endArrow=classic;html=1;rounded=0;fontSize=14;" edge="1" parent="1">
          <mxGeometry width="50" height="50" relative="1" as="geometry">
            <mxPoint x="250" y="-444" as="sourcePoint" />
            <mxPoint x="360" y="-444" as="targetPoint" />
          </mxGeometry>
        </mxCell>
      </root>
    </mxGraphModel>
  </diagram>
</mxfile>
